<?xml version="1.0" standalone="no"?>
<!DOCTYPE svg PUBLIC "-//W3C//DTD SVG 20010904//EN"
 "http://www.w3.org/TR/2001/REC-SVG-20010904/DTD/svg10.dtd">
<svg version="1.0" xmlns="http://www.w3.org/2000/svg"
 width="700.000000pt" height="700.000000pt" viewBox="0 0 700.000000 700.000000"
 preserveAspectRatio="xMidYMid meet">
<metadata>
Created by potrace 1.14, written by Peter Selinger 2001-2017
</metadata>
<g transform="translate(0.000000,700.000000) scale(0.100000,-0.100000)"
fill="#000000" stroke="none">
<path d="M3326 4682 c-3 -5 -20 -8 -38 -7 -18 1 -39 -3 -47 -9 -8 -6 -16 -10
-18 -8 -5 4 -76 -9 -88 -17 -5 -3 -12 -6 -15 -7 -3 -1 -20 -5 -37 -9 -18 -4
-33 -12 -33 -17 0 -6 -7 -8 -15 -4 -8 3 -15 1 -15 -4 0 -6 -6 -10 -14 -10 -8
0 -17 -7 -20 -16 -4 -9 -9 -14 -13 -11 -14 14 -203 -144 -203 -170 0 -6 -7
-16 -15 -23 -9 -7 -13 -15 -11 -18 3 -2 -6 -14 -20 -24 -14 -11 -23 -23 -20
-26 3 -2 -3 -17 -14 -32 -11 -15 -17 -30 -13 -34 3 -3 2 -6 -4 -6 -10 0 -29
-64 -25 -82 1 -5 -3 -8 -9 -8 -6 0 -9 -8 -7 -18 3 -10 0 -26 -7 -36 -7 -9 -11
-26 -8 -37 3 -10 1 -25 -4 -32 -6 -7 -8 -222 -6 -537 4 -570 4 -590 16 -590 4
0 7 -10 7 -22 0 -45 57 -181 104 -246 27 -38 129 -146 169 -178 31 -26 97 -64
121 -70 14 -3 26 -10 26 -14 0 -8 38 -23 53 -21 4 1 7 -4 7 -10 0 -5 5 -7 10
-4 6 3 10 2 10 -3 0 -7 113 -65 132 -66 3 -1 10 -4 14 -9 4 -4 18 -7 31 -7 13
0 23 -4 23 -9 0 -6 10 -8 22 -6 12 3 26 1 32 -4 35 -28 387 -28 422 0 6 5 20
7 32 4 12 -2 22 0 22 6 0 5 14 9 30 9 17 0 30 5 30 10 0 6 3 9 8 8 4 -1 21 4
37 11 42 16 60 22 63 21 1 0 12 9 24 20 12 11 28 20 35 20 7 0 13 5 13 10 0 6
7 10 15 10 8 0 15 4 15 8 0 5 11 15 25 22 14 7 25 18 25 23 0 6 14 22 31 37
44 40 116 158 111 183 -1 4 2 7 8 7 5 0 10 8 10 18 0 10 3 22 7 26 4 3 8 14 9
24 1 9 8 42 16 72 11 48 13 86 9 178 -1 12 -7 22 -16 22 -8 0 -15 4 -15 9 0 5
-8 8 -17 7 -15 -1 -18 8 -19 57 -2 95 -47 138 -141 134 -29 -1 -54 2 -56 7 -2
5 -78 9 -170 9 -92 0 -167 4 -167 8 0 8 -69 6 -125 -3 -38 -6 -68 -50 -70
-103 -2 -49 -15 -109 -28 -126 -22 -28 -61 -45 -102 -44 -40 2 -40 2 -42 43 0
23 -2 43 -3 45 -6 8 -4 57 2 57 4 0 4 11 -1 23 -5 13 -5 30 -1 37 5 9 4 20 -2
27 -6 7 -7 13 -2 13 5 0 9 14 9 30 0 17 -4 30 -9 30 -5 0 -3 7 4 15 10 12 10
15 -1 15 -9 0 -10 3 -4 8 12 8 14 62 2 62 -5 0 -5 5 -1 11 9 16 11 169 1 169
-4 0 -4 8 0 18 5 9 8 87 8 172 0 149 1 156 23 178 13 12 21 26 18 31 -3 5 2
11 12 15 9 3 32 15 50 26 31 19 33 19 51 1 13 -13 17 -31 16 -67 -2 -79 47
-120 143 -119 49 1 52 -1 52 -25 0 -14 8 -30 18 -36 17 -10 273 -9 480 2 84 5
94 8 101 27 6 17 7 162 1 162 -1 0 -4 14 -6 30 -3 17 -7 37 -11 45 -3 8 -7 17
-8 20 -16 60 -84 200 -97 200 -5 0 -7 4 -4 9 3 5 -5 29 -18 54 -14 25 -22 48
-19 51 4 3 2 6 -4 6 -6 0 -22 19 -36 43 -39 66 -176 197 -207 197 -5 0 -10 5
-10 11 0 5 -4 8 -9 4 -5 -3 -12 -1 -15 4 -8 13 -84 51 -101 51 -8 0 -15 5 -15
11 0 5 -4 8 -9 4 -5 -3 -12 -2 -15 3 -2 4 -18 9 -35 10 -17 1 -43 8 -58 14
-15 6 -47 12 -70 12 -23 1 -45 4 -49 9 -10 10 -252 9 -258 -1z m184 -124 c0
-5 27 -8 60 -8 33 0 60 -4 60 -9 0 -5 12 -8 28 -7 15 2 32 1 37 -2 6 -4 17 -7
25 -9 8 -1 16 -6 18 -11 2 -6 12 -8 22 -5 11 3 20 0 20 -6 0 -6 5 -10 11 -8 6
1 14 -4 16 -11 4 -9 -2 -11 -19 -7 -24 6 -129 15 -188 15 -62 1 -195 -12 -198
-19 -1 -4 -16 -6 -32 -5 -17 1 -30 -2 -30 -7 0 -6 -6 -9 -12 -8 -7 1 -26 -4
-43 -11 -16 -7 -34 -14 -40 -15 -29 -6 -55 -18 -55 -26 0 -5 -3 -8 -7 -7 -13
2 -67 -22 -78 -35 -5 -7 -28 -26 -49 -42 -46 -35 -100 -87 -101 -97 0 -3 -9
-17 -20 -30 -27 -32 -58 -88 -49 -88 4 0 -1 -8 -10 -19 -9 -10 -18 -28 -19
-40 -1 -11 -5 -21 -9 -21 -8 0 -24 -77 -20 -92 1 -5 -2 -8 -6 -8 -5 0 -8 -10
-7 -22 1 -13 -2 -34 -7 -47 -7 -21 -13 -122 -8 -146 1 -5 2 -13 1 -17 -2 -15
-3 -133 -1 -143 1 -5 2 -14 1 -18 -1 -4 -1 -47 0 -95 0 -48 0 -98 0 -112 0
-14 0 -70 0 -125 0 -132 0 -125 -1 -239 -1 -55 3 -102 7 -105 10 -7 9 -79 -1
-88 -3 -4 -6 1 -6 11 0 9 -7 27 -16 41 -8 13 -14 29 -14 37 3 18 -11 58 -19
58 -11 0 -13 51 -17 574 -3 286 -1 493 4 500 5 6 9 26 7 44 -1 17 2 32 7 32 4
0 7 3 7 8 -3 15 14 73 22 78 5 3 7 10 4 15 -4 5 -1 9 4 9 6 0 11 8 11 19 0 10
7 24 15 31 8 7 15 18 15 26 0 7 10 25 23 39 12 14 38 45 57 69 19 24 46 47 59
51 13 3 32 16 42 28 16 19 20 20 39 9 12 -8 19 -9 16 -4 -11 18 6 44 25 39 12
-3 19 0 19 9 0 12 12 16 37 13 3 0 10 6 15 15 5 8 15 13 23 10 8 -4 23 -3 33
2 21 9 40 13 112 20 30 3 58 9 62 13 10 9 118 8 118 -1z m355 -58 c-3 -5 -13
-10 -21 -10 -8 0 -12 5 -9 10 3 6 13 10 21 10 8 0 12 -4 9 -10z m215 -1444
l85 -4 3 -36 c3 -33 -9 -48 -22 -28 -6 10 -342 9 -352 -1 -12 -11 -15 -36 -14
-94 1 -31 -3 -53 -9 -53 -6 0 -10 -3 -9 -7 6 -28 -62 -97 -97 -98 -5 -1 -19
-6 -30 -11 -24 -13 -60 -11 -100 6 -16 8 -33 14 -36 14 -7 1 -39 33 -39 39 0
2 6 4 13 5 60 8 87 16 87 23 0 5 3 8 8 7 11 -3 49 20 76 47 14 14 23 25 20 25
-3 0 3 12 14 28 11 15 18 35 17 45 -2 9 1 17 6 17 5 0 9 17 9 38 0 21 2 41 5
43 4 5 203 2 365 -5z"/>
<path d="M3650 2840 c-9 -6 -10 -10 -3 -10 6 0 15 5 18 10 8 12 4 12 -15 0z"/>
<path d="M3668 2758 c9 -9 15 -9 24 0 9 9 7 12 -12 12 -19 0 -21 -3 -12 -12z"/>
<path d="M305 4658 c-25 -6 -70 -37 -73 -50 -1 -5 -3 -9 -3 -10 -1 -2 -2 -500
-3 -1108 -2 -1025 -1 -1107 15 -1138 9 -18 21 -33 26 -34 9 -1 29 -6 58 -17
11 -4 39 -6 63 -6 37 1 42 -2 42 -21 0 -48 16 -50 300 -49 179 0 272 4 285 12
19 11 20 22 20 297 0 157 3 287 6 291 5 4 15 -22 34 -85 1 -3 4 -12 8 -20 9
-24 20 -74 19 -82 -1 -5 2 -8 7 -8 5 0 11 -18 15 -40 3 -22 11 -40 18 -40 6 0
9 -3 5 -6 -3 -3 6 -38 20 -78 31 -89 35 -101 31 -102 -11 -2 59 -54 73 -54 11
0 19 -4 19 -9 0 -5 18 -8 40 -6 42 3 70 -13 70 -40 0 -8 6 -17 13 -22 6 -4
142 -8 301 -8 229 0 292 3 303 13 16 16 17 29 3 37 -6 4 -8 11 -5 16 4 5 3 15
-2 22 -4 6 -8 14 -9 17 -2 9 -15 44 -30 78 -8 18 -14 39 -14 47 0 8 -4 15 -9
15 -6 0 -8 9 -6 20 2 11 0 20 -6 20 -5 0 -9 9 -9 19 0 11 -7 26 -15 35 -9 8
-14 19 -13 23 1 4 -3 23 -9 41 -7 18 -11 34 -10 36 1 1 -3 9 -9 17 -12 15 -29
68 -26 82 1 4 -3 7 -9 7 -6 0 -9 7 -5 15 3 8 1 15 -4 15 -6 0 -10 9 -10 20 0
11 -4 20 -10 20 -5 0 -7 7 -4 15 4 8 2 15 -3 15 -9 0 -39 88 -35 103 1 4 -2 7
-8 7 -5 0 -10 9 -10 20 0 11 -4 20 -8 20 -4 0 -8 8 -9 18 0 9 -10 40 -21 69
-19 49 -19 53 -3 67 10 9 22 16 28 16 6 0 13 7 17 15 3 8 12 15 19 15 17 0
137 128 137 146 0 4 7 15 16 25 8 9 17 23 18 31 1 7 12 35 24 62 12 27 22 59
22 73 0 13 3 22 8 20 4 -3 8 14 9 36 8 137 9 213 4 222 -3 6 -6 26 -7 45 -1
19 -4 43 -8 52 -4 9 -8 22 -10 30 -1 7 -4 18 -7 23 -4 6 -5 18 -4 28 2 9 0 17
-5 17 -7 0 -20 34 -19 53 0 5 -11 24 -26 43 -14 19 -22 34 -18 34 4 0 3 4 -3
8 -12 8 -54 93 -54 110 0 7 -5 12 -11 12 -5 0 -7 5 -4 10 3 6 1 10 -4 10 -6 0
-11 5 -11 11 0 28 -131 166 -205 217 -22 15 -43 31 -46 36 -4 5 -12 5 -18 2
-6 -4 -11 -2 -11 3 0 6 -9 11 -19 11 -11 0 -23 4 -26 10 -5 8 -78 33 -95 32
-3 0 -10 4 -17 10 -7 5 -25 8 -40 7 -15 -2 -34 1 -42 6 -17 10 -959 13 -996 3z
m985 -132 c19 -3 50 -9 68 -15 17 -5 32 -7 32 -5 0 3 10 -2 22 -10 12 -9 30
-16 39 -16 9 0 20 -7 23 -15 4 -13 -2 -15 -32 -14 -20 1 -41 5 -47 8 -19 11
-939 7 -950 -4 -15 -15 -18 -50 -19 -232 -1 -90 -5 -163 -9 -163 -5 0 -5 -5
-2 -10 10 -16 11 -150 2 -150 -5 0 -5 -5 -2 -10 10 -16 11 -230 2 -230 -5 0
-5 -5 -2 -10 10 -16 11 -310 2 -310 -5 0 -5 -5 -2 -10 10 -16 11 -230 2 -230
-5 0 -5 -5 -2 -10 10 -16 11 -150 2 -150 -5 0 -5 -5 -2 -10 9 -15 11 -390 2
-390 -4 0 -4 -8 1 -17 5 -10 7 -34 5 -53 -4 -33 -7 -36 -36 -35 l-32 1 -3
1050 -2 1049 452 -2 c249 -1 469 -4 488 -7z m-94 -594 c4 -10 8 -36 9 -60 1
-37 -4 -49 -35 -81 -25 -25 -46 -37 -69 -39 -64 -5 -66 -2 -64 100 0 51 1 94
2 95 1 2 34 2 75 2 59 -1 76 -4 82 -17z m174 -57 c13 -14 20 -25 15 -25 -5 0
-4 -5 3 -12 7 -7 12 -22 12 -35 0 -13 3 -23 8 -23 4 0 7 -13 7 -30 0 -16 -3
-30 -7 -30 -4 0 -7 -16 -6 -35 1 -30 -6 -42 -46 -80 -29 -29 -55 -45 -71 -45
-14 0 -25 -4 -25 -9 0 -5 -51 -8 -112 -8 l-113 2 0 38 c0 20 2 38 5 38 23 6
50 5 50 -2 0 -5 7 -9 15 -9 8 0 15 5 15 11 0 5 8 9 18 7 40 -6 152 67 152 101
0 5 6 14 13 18 12 8 14 18 24 106 3 26 8 47 12 47 4 0 18 -11 31 -25z"/>
<path d="M1095 3890 c-4 -7 -1 -16 6 -21 17 -10 26 8 11 23 -6 6 -12 6 -17 -2z"/>
<path d="M5010 4657 c0 -4 -8 -11 -17 -14 -26 -10 -40 -26 -36 -40 3 -7 -1
-21 -7 -32 -7 -14 -7 -21 0 -21 5 0 8 -10 6 -22 -1 -13 1 -30 5 -38 11 -20 23
-71 22 -92 0 -10 3 -18 8 -18 4 0 6 -9 4 -20 -2 -11 0 -22 6 -25 5 -4 9 -21 9
-39 0 -18 3 -36 7 -40 7 -7 10 -17 20 -68 3 -16 9 -28 13 -28 5 0 6 -9 3 -20
-3 -11 0 -27 7 -35 7 -8 10 -24 7 -35 -3 -11 -1 -20 4 -20 5 0 9 -8 9 -18 0
-10 3 -22 7 -26 4 -3 8 -19 9 -34 1 -15 8 -45 14 -67 6 -22 12 -50 13 -62 0
-13 5 -23 9 -23 4 0 8 -11 8 -25 0 -14 4 -25 8 -25 5 0 7 -13 4 -30 -2 -17 0
-30 6 -30 6 0 9 -9 7 -20 -2 -11 0 -20 6 -20 5 0 9 -15 9 -34 0 -19 4 -37 9
-40 4 -3 7 -17 6 -31 -2 -14 1 -25 7 -25 5 0 8 -8 7 -17 -1 -10 3 -31 10 -47
6 -16 13 -43 14 -60 2 -17 5 -36 9 -41 8 -15 22 -69 32 -120 2 -11 6 -27 9
-35 10 -29 21 -75 20 -92 0 -10 3 -18 7 -18 4 0 10 -17 13 -37 9 -54 12 -67
18 -78 4 -5 10 -28 14 -50 5 -22 10 -47 12 -55 3 -8 5 -25 6 -37 0 -13 4 -23
8 -23 6 0 16 -38 22 -87 2 -12 6 -25 10 -29 4 -4 7 -18 7 -30 0 -13 4 -25 9
-28 4 -3 6 -17 3 -31 -2 -15 0 -25 7 -25 7 0 9 -4 6 -10 -3 -5 -1 -10 4 -10
15 0 14 -27 -1 -34 -10 -5 -10 -7 0 -12 6 -3 12 -15 12 -27 0 -18 2 -19 10 -7
12 19 25 6 15 -17 -11 -25 -12 -36 -4 -48 3 -5 9 -27 13 -47 4 -21 10 -38 15
-38 4 0 8 -7 8 -15 0 -8 -5 -15 -10 -15 -6 0 -7 -3 -4 -6 4 -4 13 -1 22 6 10
8 15 9 15 1 0 -6 11 -11 25 -11 14 0 25 -4 25 -9 0 -4 17 -7 38 -6 39 2 64
-15 76 -51 6 -18 18 -19 317 -19 356 1 326 -8 345 95 3 19 10 40 14 45 5 6 7
20 6 30 -2 11 1 25 6 31 5 7 8 16 6 20 -1 5 4 25 11 44 8 19 14 45 15 57 0 12
4 25 9 29 4 4 7 17 7 29 0 12 3 25 8 29 4 4 7 15 8 24 0 10 3 24 7 32 3 8 8
26 10 40 3 14 8 36 12 50 4 14 8 34 9 45 2 11 6 27 9 35 10 26 20 75 18 84 -1
4 3 14 9 21 6 8 10 19 9 27 -1 7 1 20 4 28 4 8 8 24 10 35 1 11 6 26 10 33 5
6 6 16 2 21 -3 5 -1 12 5 16 5 3 10 19 10 35 0 16 5 32 10 35 6 4 8 11 4 16
-3 5 -1 16 5 23 7 8 11 18 10 22 -5 21 14 93 23 88 6 -4 8 7 5 25 -3 17 -1 33
4 37 5 3 9 16 9 30 0 13 4 24 8 24 4 0 8 8 9 18 3 40 13 86 20 91 4 3 9 17 10
31 1 14 4 32 6 40 2 8 7 29 11 45 4 17 10 37 13 45 4 8 7 23 7 32 1 9 4 20 9
24 4 4 7 18 7 30 0 13 4 25 10 29 5 3 7 12 4 20 -3 8 -2 20 2 27 4 7 9 19 10
28 2 8 8 33 14 55 6 22 12 50 13 63 0 12 5 22 10 22 5 0 7 10 6 23 -2 12 -1
27 2 32 5 8 13 35 25 80 1 6 7 30 14 55 6 25 12 55 13 67 2 12 6 25 10 29 4 4
7 18 7 30 0 13 4 25 10 29 11 7 1 36 -19 51 -8 6 -27 10 -42 9 -27 -2 -48 18
-30 29 11 7 11 95 0 124 -5 13 -13 21 -19 17 -5 -3 -14 2 -21 12 -10 17 -33
18 -320 17 -307 -1 -309 -1 -343 -25 -19 -13 -35 -30 -35 -39 -2 -26 -8 -64
-16 -92 -4 -15 -9 -40 -10 -55 -2 -15 -6 -39 -9 -53 -3 -14 -10 -52 -16 -85
-5 -33 -12 -71 -15 -85 -3 -14 -7 -37 -9 -52 -2 -14 -8 -41 -12 -60 -4 -18 -8
-42 -8 -53 -1 -11 -4 -24 -7 -30 -3 -5 -5 -25 -4 -43 1 -18 -2 -35 -7 -38 -4
-3 -8 -20 -8 -39 0 -19 -4 -36 -9 -40 -6 -3 -8 -18 -6 -34 5 -39 -10 -61 -21
-30 -4 13 -8 35 -9 49 -1 14 -3 27 -5 30 -2 5 -5 23 -16 113 -3 26 -10 47 -15
47 -4 0 -6 13 -4 30 2 16 -1 32 -5 35 -5 3 -9 21 -8 39 1 18 -2 38 -5 43 -7
11 -18 69 -20 110 -1 12 -5 25 -9 29 -5 4 -8 24 -8 44 0 20 -5 41 -12 48 -7 7
-8 12 -2 12 5 1 -6 7 -23 15 -25 10 -33 20 -33 39 0 14 -4 27 -8 30 -4 2 -7
17 -6 33 0 15 -2 30 -5 33 -3 3 -11 14 -17 24 -6 11 -19 24 -30 30 -10 6 -21
13 -24 16 -8 8 -640 6 -640 -3z m591 -149 c5 -18 3 -31 -4 -35 -7 -4 -102 -8
-212 -9 -110 -1 -201 -3 -202 -4 -2 -1 -9 -3 -15 -4 -15 -1 -21 -76 -7 -76 5
0 7 -11 5 -25 -3 -14 0 -25 5 -25 5 0 9 -13 9 -29 0 -17 4 -32 10 -36 5 -3 7
-12 3 -20 -3 -9 0 -22 7 -30 7 -8 10 -21 7 -29 -3 -7 -2 -17 3 -22 9 -9 20
-51 24 -90 1 -11 5 -24 8 -30 9 -16 21 -68 19 -82 -1 -8 3 -19 9 -27 6 -7 10
-17 9 -21 -1 -5 0 -16 4 -24 3 -8 8 -26 10 -40 3 -14 8 -34 10 -45 3 -11 10
-40 17 -65 6 -25 12 -49 14 -55 2 -5 6 -23 10 -40 4 -16 14 -53 22 -82 9 -29
13 -57 9 -63 -3 -5 -1 -10 4 -10 6 0 11 -11 11 -24 0 -14 5 -28 10 -31 6 -4 8
-11 4 -16 -3 -6 -1 -22 4 -37 6 -15 13 -36 18 -47 4 -11 6 -28 5 -38 -1 -10 2
-24 7 -30 9 -13 38 -136 34 -149 -1 -5 2 -8 7 -8 5 0 9 -10 9 -22 0 -13 6 -43
13 -68 12 -44 13 -51 10 -87 -2 -17 -3 -16 -16 1 -8 10 -12 23 -9 27 3 5 0 9
-5 9 -6 0 -10 3 -9 8 3 15 -15 103 -23 107 -4 3 -6 12 -2 20 3 9 1 21 -4 28
-5 6 -10 23 -11 37 -1 14 -5 26 -10 28 -5 1 -7 14 -4 27 2 15 0 25 -7 25 -7 0
-10 10 -7 25 3 13 1 27 -3 30 -8 4 -26 82 -22 98 0 4 -3 7 -8 7 -5 0 -8 14 -7
30 1 17 -1 30 -6 30 -4 0 -8 13 -8 29 0 16 -4 31 -10 33 -5 2 -11 25 -13 52
-2 26 -8 51 -13 55 -5 3 -9 18 -9 34 1 15 -3 27 -7 27 -4 0 -8 13 -8 28 0 16
-3 32 -7 36 -7 6 -9 15 -17 61 -6 37 -19 80 -26 90 -4 6 -6 18 -4 29 1 10 -1
26 -6 35 -12 23 -24 73 -21 94 1 9 -2 17 -7 17 -5 0 -9 6 -10 13 0 12 -4 31
-19 92 -4 17 -6 36 -4 44 1 8 -2 10 -10 6 -8 -6 -10 1 -7 24 3 18 1 34 -4 37
-4 3 -8 14 -8 25 0 10 -4 19 -9 19 -4 0 -7 16 -6 35 1 19 -2 35 -6 35 -6 0
-16 40 -20 75 -1 6 -5 17 -9 25 -7 13 23 15 248 15 l256 0 7 -27z m1075 8 c1
-11 -3 -27 -9 -35 -10 -14 -37 -16 -182 -16 -93 1 -180 -3 -192 -8 -13 -6 -24
-23 -29 -46 -4 -20 -9 -45 -11 -56 -2 -11 -5 -36 -7 -55 -2 -19 -7 -43 -11
-53 -4 -9 -5 -27 -2 -38 3 -12 0 -22 -7 -25 -9 -3 -12 -21 -11 -50 2 -24 -1
-44 -6 -44 -6 0 -9 -6 -8 -12 1 -7 -1 -33 -5 -58 -4 -25 -8 -55 -9 -67 -1 -13
-4 -23 -8 -23 -3 0 -6 -15 -7 -32 0 -18 -5 -34 -11 -36 -6 -2 -6 -15 -1 -33 6
-19 5 -33 -3 -41 -7 -7 -13 -26 -15 -43 -1 -16 -4 -46 -6 -66 -2 -20 -7 -47
-12 -60 -9 -27 -12 -47 -19 -104 -13 -99 -18 -125 -24 -125 -4 0 -7 -17 -6
-37 1 -21 -3 -44 -8 -50 -5 -7 -7 -22 -4 -34 3 -12 0 -22 -8 -25 -8 -3 -11
-12 -8 -20 3 -8 2 -22 -1 -31 -11 -28 -26 4 -26 55 0 23 -4 42 -9 42 -5 0 -7
9 -4 21 3 11 0 31 -7 43 -7 15 -9 38 -5 62 8 48 14 86 21 142 4 23 10 42 14
42 4 0 6 14 5 30 -1 17 1 30 5 30 4 0 8 23 9 51 1 29 5 57 8 63 4 6 6 19 5 29
-2 9 1 17 6 17 5 0 9 21 8 48 -1 26 2 50 6 53 4 3 9 18 10 35 1 16 4 33 7 39
3 5 6 23 7 40 3 36 12 85 21 105 3 8 5 29 4 46 -1 18 2 35 7 38 6 3 9 24 7 45
-2 26 1 41 10 45 10 3 11 14 5 40 -5 21 -4 38 3 45 6 6 12 21 15 33 2 13 5 30
7 38 2 8 4 26 4 40 l1 25 242 0 c230 0 241 -1 244 -19z m-1131 -1657 c2 -23
-10 -49 -24 -49 -4 0 -6 14 -5 30 1 17 -3 30 -9 30 -7 0 -5 5 3 10 22 14 33 7
35 -21z m27 -121 c-2 -16 0 -28 6 -28 6 0 9 -9 7 -20 -2 -11 0 -22 5 -25 5 -3
8 -20 8 -37 -1 -18 3 -33 9 -35 6 -2 8 -15 5 -30 -3 -18 -1 -24 7 -19 10 7 15
-17 14 -76 0 -10 5 -18 11 -18 6 0 4 -4 -4 -9 -18 -12 -33 -3 -26 15 3 8 0 14
-5 14 -6 0 -9 9 -6 20 3 10 -1 24 -8 30 -8 6 -11 22 -9 36 2 13 0 24 -6 24 -5
0 -9 10 -9 23 0 19 -7 62 -11 62 -3 0 -12 41 -13 63 0 12 -5 22 -9 22 -5 0 -4
9 2 20 15 28 37 6 32 -32z"/>
</g>
</svg>
